<mxfile host="app.diagrams.net" modified="2021-12-10T10:46:41.345Z" agent="5.0 (Macintosh; Intel Mac OS X 10_15_7) AppleWebKit/537.36 (KHTML, like Gecko) Chrome/96.0.4664.55 Safari/537.36" etag="EEPCKNLuVOPk2-YdvQ3g" version="15.9.1" type="github">
  <diagram id="r9-I6vs-IyL5GgBvDk6a" name="Page-1">
    <mxGraphModel dx="2148" dy="834" grid="1" gridSize="10" guides="1" tooltips="1" connect="1" arrows="1" fold="1" page="1" pageScale="1" pageWidth="850" pageHeight="1100" math="0" shadow="0">
      <root>
        <mxCell id="0" />
        <mxCell id="1" parent="0" />
        <mxCell id="LqAPMmOnRcd5ojMGhl6F-1" value="PRD" style="rounded=0;whiteSpace=wrap;html=1;" vertex="1" parent="1">
          <mxGeometry x="150" y="610" width="120" height="60" as="geometry" />
        </mxCell>
        <mxCell id="LqAPMmOnRcd5ojMGhl6F-3" value="PRD Review" style="rounded=0;whiteSpace=wrap;html=1;" vertex="1" parent="1">
          <mxGeometry x="430" y="610" width="120" height="60" as="geometry" />
        </mxCell>
        <mxCell id="LqAPMmOnRcd5ojMGhl6F-4" value="Initiator" style="text;html=1;strokeColor=none;fillColor=none;align=center;verticalAlign=middle;whiteSpace=wrap;rounded=0;" vertex="1" parent="1">
          <mxGeometry x="-50" y="730" width="60" height="30" as="geometry" />
        </mxCell>
        <mxCell id="LqAPMmOnRcd5ojMGhl6F-5" value="Participant" style="text;html=1;strokeColor=none;fillColor=none;align=center;verticalAlign=middle;whiteSpace=wrap;rounded=0;" vertex="1" parent="1">
          <mxGeometry x="-50" y="820" width="60" height="30" as="geometry" />
        </mxCell>
        <mxCell id="LqAPMmOnRcd5ojMGhl6F-6" value="Implementation" style="rounded=0;whiteSpace=wrap;html=1;" vertex="1" parent="1">
          <mxGeometry x="680" y="610" width="120" height="60" as="geometry" />
        </mxCell>
        <mxCell id="LqAPMmOnRcd5ojMGhl6F-7" value="Coding" style="rounded=0;whiteSpace=wrap;html=1;" vertex="1" parent="1">
          <mxGeometry x="930" y="610" width="120" height="60" as="geometry" />
        </mxCell>
        <mxCell id="LqAPMmOnRcd5ojMGhl6F-8" value="Code Review" style="rounded=0;whiteSpace=wrap;html=1;" vertex="1" parent="1">
          <mxGeometry x="1150" y="610" width="120" height="60" as="geometry" />
        </mxCell>
        <mxCell id="LqAPMmOnRcd5ojMGhl6F-9" value="Test Case" style="rounded=0;whiteSpace=wrap;html=1;" vertex="1" parent="1">
          <mxGeometry x="1370" y="610" width="120" height="60" as="geometry" />
        </mxCell>
        <mxCell id="LqAPMmOnRcd5ojMGhl6F-10" value="Testing" style="rounded=0;whiteSpace=wrap;html=1;" vertex="1" parent="1">
          <mxGeometry x="1540" y="610" width="120" height="60" as="geometry" />
        </mxCell>
        <mxCell id="LqAPMmOnRcd5ojMGhl6F-11" value="Onlining" style="rounded=0;whiteSpace=wrap;html=1;" vertex="1" parent="1">
          <mxGeometry x="1740" y="610" width="120" height="60" as="geometry" />
        </mxCell>
      </root>
    </mxGraphModel>
  </diagram>
</mxfile>
